<svg width="8" height="43" viewBox="0 0 8 43" fill="none" xmlns="http://www.w3.org/2000/svg">
<path d="M4.25 1C4.25 0.861929 4.13807 0.75 4 0.75C3.86193 0.75 3.75 0.861929 3.75 1L4.25 1ZM3.82322 42.1768C3.92085 42.2744 4.07914 42.2744 4.17677 42.1768L5.76777 40.5858C5.8654 40.4882 5.8654 40.3299 5.76777 40.2322C5.67013 40.1346 5.51184 40.1346 5.41421 40.2322L4 41.6464L2.58578 40.2322C2.48815 40.1346 2.32986 40.1346 2.23223 40.2322C2.1346 40.3299 2.1346 40.4882 2.23223 40.5858L3.82322 42.1768ZM3.75 2.46429C3.75 2.60236 3.86193 2.71429 4 2.71429C4.13807 2.71429 4.25 2.60236 4.25 2.46429L3.75 2.46429ZM4.25 5.39286C4.25 5.25479 4.13807 5.14286 4 5.14286C3.86193 5.14286 3.75 5.25479 3.75 5.39286L4.25 5.39286ZM3.75 8.32143C3.75 8.4595 3.86193 8.57143 4 8.57143C4.13807 8.57143 4.25 8.4595 4.25 8.32143L3.75 8.32143ZM4.25 11.25C4.25 11.1119 4.13807 11 4 11C3.86193 11 3.75 11.1119 3.75 11.25L4.25 11.25ZM3.75 14.1786C3.75 14.3166 3.86193 14.4286 4 14.4286C4.13807 14.4286 4.25 14.3166 4.25 14.1786L3.75 14.1786ZM4.25 17.1071C4.25 16.9691 4.13807 16.8571 4 16.8571C3.86193 16.8571 3.75 16.9691 3.75 17.1071L4.25 17.1071ZM3.75 20.0357C3.75 20.1738 3.86193 20.2857 4 20.2857C4.13807 20.2857 4.25 20.1738 4.25 20.0357L3.75 20.0357ZM4.25 22.9643C4.25 22.8262 4.13807 22.7143 4 22.7143C3.86193 22.7143 3.75 22.8262 3.75 22.9643L4.25 22.9643ZM3.75 25.8929C3.75 26.0309 3.86193 26.1429 4 26.1429C4.13807 26.1429 4.25 26.0309 4.25 25.8929L3.75 25.8929ZM4.25 28.8214C4.25 28.6834 4.13807 28.5714 4 28.5714C3.86193 28.5714 3.75 28.6834 3.75 28.8214L4.25 28.8214ZM3.75 31.75C3.75 31.8881 3.86193 32 4 32C4.13807 32 4.25 31.8881 4.25 31.75L3.75 31.75ZM4.25 34.6786C4.25 34.5405 4.13807 34.4286 4 34.4286C3.86193 34.4286 3.75 34.5405 3.75 34.6786L4.25 34.6786ZM3.75 37.6071C3.75 37.7452 3.86193 37.8571 4 37.8571C4.13807 37.8571 4.25 37.7452 4.25 37.6071L3.75 37.6071ZM4.25 40.5357C4.25 40.3976 4.13807 40.2857 4 40.2857C3.86193 40.2857 3.75 40.3976 3.75 40.5357L4.25 40.5357ZM3.75 1L3.75 2.46429L4.25 2.46429L4.25 1L3.75 1ZM3.75 5.39286L3.75 8.32143L4.25 8.32143L4.25 5.39286L3.75 5.39286ZM3.75 11.25L3.75 14.1786L4.25 14.1786L4.25 11.25L3.75 11.25ZM3.75 17.1071L3.75 20.0357L4.25 20.0357L4.25 17.1071L3.75 17.1071ZM3.75 22.9643L3.75 25.8929L4.25 25.8929L4.25 22.9643L3.75 22.9643ZM3.75 28.8214L3.75 31.75L4.25 31.75L4.25 28.8214L3.75 28.8214ZM3.75 34.6786L3.75 37.6071L4.25 37.6071L4.25 34.6786L3.75 34.6786ZM3.75 40.5357L3.75 42L4.25 42L4.25 40.5357L3.75 40.5357ZM4.5 1C4.5 0.723858 4.27614 0.5 4 0.5C3.72386 0.5 3.5 0.723858 3.5 1L4.5 1ZM3.64644 42.3536C3.84171 42.5488 4.15829 42.5488 4.35355 42.3536L7.53553 39.1716C7.73079 38.9763 7.73079 38.6597 7.53553 38.4645C7.34027 38.2692 7.02369 38.2692 6.82843 38.4645L4 41.2929L1.17157 38.4645C0.976309 38.2692 0.659727 38.2692 0.464464 38.4645C0.269202 38.6597 0.269202 38.9763 0.464464 39.1716L3.64644 42.3536ZM3.5 2.46429C3.5 2.74043 3.72386 2.96429 4 2.96429C4.27614 2.96429 4.5 2.74043 4.5 2.46429L3.5 2.46429ZM4.5 5.39286C4.5 5.11671 4.27614 4.89286 4 4.89286C3.72386 4.89286 3.5 5.11671 3.5 5.39286L4.5 5.39286ZM3.5 8.32143C3.5 8.59757 3.72386 8.82143 4 8.82143C4.27614 8.82143 4.5 8.59757 4.5 8.32143L3.5 8.32143ZM4.5 11.25C4.5 10.9739 4.27614 10.75 4 10.75C3.72386 10.75 3.5 10.9739 3.5 11.25L4.5 11.25ZM3.5 14.1786C3.5 14.4547 3.72386 14.6786 4 14.6786C4.27614 14.6786 4.5 14.4547 4.5 14.1786L3.5 14.1786ZM4.5 17.1071C4.5 16.831 4.27614 16.6071 4 16.6071C3.72386 16.6071 3.5 16.831 3.5 17.1071L4.5 17.1071ZM3.5 20.0357C3.5 20.3119 3.72386 20.5357 4 20.5357C4.27614 20.5357 4.5 20.3119 4.5 20.0357L3.5 20.0357ZM4.5 22.9643C4.5 22.6881 4.27614 22.4643 4 22.4643C3.72386 22.4643 3.5 22.6881 3.5 22.9643L4.5 22.9643ZM3.5 25.8929C3.5 26.169 3.72386 26.3929 4 26.3929C4.27614 26.3929 4.5 26.169 4.5 25.8929L3.5 25.8929ZM4.5 28.8214C4.5 28.5453 4.27614 28.3214 4 28.3214C3.72386 28.3214 3.5 28.5453 3.5 28.8214L4.5 28.8214ZM3.5 31.75C3.5 32.0261 3.72386 32.25 4 32.25C4.27614 32.25 4.5 32.0261 4.5 31.75L3.5 31.75ZM4.5 34.6786C4.5 34.4024 4.27614 34.1786 4 34.1786C3.72386 34.1786 3.5 34.4024 3.5 34.6786L4.5 34.6786ZM3.5 37.6071C3.5 37.8833 3.72386 38.1071 4 38.1071C4.27614 38.1071 4.5 37.8833 4.5 37.6071L3.5 37.6071ZM4.5 40.5357C4.5 40.2596 4.27614 40.0357 4 40.0357C3.72386 40.0357 3.5 40.2596 3.5 40.5357L4.5 40.5357ZM3.5 1L3.5 2.46429L4.5 2.46429L4.5 1L3.5 1ZM3.5 5.39286L3.5 8.32143L4.5 8.32143L4.5 5.39286L3.5 5.39286ZM3.5 11.25L3.5 14.1786L4.5 14.1786L4.5 11.25L3.5 11.25ZM3.5 17.1071L3.5 20.0357L4.5 20.0357L4.5 17.1071L3.5 17.1071ZM3.5 22.9643L3.5 25.8929L4.5 25.8929L4.5 22.9643L3.5 22.9643ZM3.5 28.8214L3.5 31.75L4.5 31.75L4.5 28.8214L3.5 28.8214ZM3.5 34.6786L3.5 37.6071L4.5 37.6071L4.5 34.6786L3.5 34.6786ZM3.5 40.5357L3.5 42L4.5 42L4.5 40.5357L3.5 40.5357Z" fill="black"/>
</svg>
